<svg width="117" height="69" viewBox="0 0 117 69" fill="none" xmlns="http://www.w3.org/2000/svg">
<path fill-rule="evenodd" clip-rule="evenodd" d="M76.44 23.066C76.553 23.179 76.553 23.292 76.666 23.292C76.779 23.518 76.892 23.631 77.118 23.744C77.231 23.857 77.457 23.9701 77.457 24.1961C77.457 24.3091 77.457 24.422 77.457 24.535C77.344 24.874 77.005 25.1 76.666 24.987C75.988 24.761 75.762 24.309 75.424 23.858V23.745C75.198 23.519 75.198 23.293 75.311 23.067C75.424 23.067 75.537 22.954 75.537 22.841C75.876 22.727 76.328 22.727 76.44 23.066ZM29.57 13.579C36.346 12.111 70.003 18.097 73.278 19.113C76.214 20.129 79.942 21.598 82.991 23.292C83.782 23.744 84.572 24.196 85.363 24.76H85.476C85.928 24.647 86.38 24.5341 86.831 24.3081C86.831 24.1951 86.718 24.082 86.605 23.856C83.33 18.435 35.556 6.35004 27.763 12.449C28.328 12.901 29.005 13.24 29.57 13.579ZM83.556 25.212C83.104 24.986 82.765 24.76 82.427 24.534C82.201 24.421 81.975 24.308 81.749 24.195C80.733 23.63 79.942 23.179 78.248 22.501C77.796 22.275 77.232 22.049 76.554 21.823C71.698 19.903 51.029 15.9501 38.38 14.8211C38.719 14.9341 38.606 14.934 38.945 15.047C39.284 15.047 39.623 15.386 39.51 15.725C39.51 15.838 39.51 15.951 39.51 16.064C39.397 16.29 39.058 16.403 38.832 16.29C38.041 16.064 38.38 16.29 37.816 15.951C37.59 15.951 37.477 15.838 37.477 15.725C37.364 15.499 37.364 15.273 37.364 15.16C37.477 14.934 37.59 14.821 37.816 14.708C36.348 14.595 34.992 14.595 33.863 14.595C34.089 14.708 34.202 14.934 34.089 15.16C34.089 15.273 34.089 15.273 34.089 15.386L33.976 15.499C33.75 15.725 33.411 15.838 33.072 15.612C32.846 15.499 32.959 15.499 32.62 15.386C33.185 15.725 33.862 16.064 34.427 16.402C35.443 16.967 36.46 17.531 37.363 17.87C39.283 18.774 41.542 19.564 44.027 20.355C43.914 19.451 44.479 18.774 45.495 18.661C45.834 18.435 46.286 18.548 46.399 18.887C46.625 19.113 46.512 19.565 46.286 19.791C46.173 19.791 45.495 20.017 45.382 20.13C45.495 20.356 45.495 20.5821 45.382 20.8081C47.754 21.5991 50.351 22.276 53.062 22.841C53.175 22.615 52.949 22.5021 52.61 22.5021C52.271 22.3891 52.045 22.05 52.045 21.711C52.045 21.372 52.384 21.146 52.723 21.146C54.078 21.372 54.643 22.162 54.417 23.179C56.224 23.518 58.144 23.9701 60.177 24.3081C60.29 23.9691 60.403 23.856 60.742 23.517C60.968 23.178 61.42 23.178 61.646 23.404C61.985 23.63 61.985 24.0821 61.759 24.3081C61.646 24.4211 61.646 24.421 61.533 24.534C69.552 25.776 77.458 26.2281 82.992 25.3251C83.104 25.3251 83.33 25.325 83.556 25.212ZM32.168 14.482C31.829 14.595 31.49 14.595 31.264 14.595L31.377 14.708L31.829 14.934C32.055 15.047 32.168 15.16 32.394 15.273C32.281 15.16 32.281 15.16 32.168 15.047C32.168 14.934 32.168 14.9341 32.168 14.8211C32.168 14.7081 32.168 14.595 32.168 14.595C32.168 14.595 32.168 14.595 32.168 14.482ZM82.426 49.155C81.861 48.364 81.071 47.5741 80.054 46.6701C71.583 39.4421 47.075 30.181 39.056 28.261C31.037 26.341 16.016 20.242 13.418 27.357C12.853 29.164 12.966 31.875 14.322 35.828C19.404 50.172 30.586 54.463 43.8 59.659C54.191 63.725 79.151 71.631 82.539 54.803L82.991 52.092C82.991 51.301 83.556 50.85 84.233 50.737C84.346 50.737 84.459 50.737 84.685 50.737C84.798 50.737 85.024 50.85 85.137 50.85C86.492 50.285 87.283 49.269 88.186 48.139C87.057 48.591 86.04 48.93 85.25 49.155C85.024 49.607 84.798 49.833 84.346 50.059C84.233 50.059 84.233 50.059 84.12 50.059C83.443 50.285 82.652 49.946 82.426 49.155ZM85.702 54.012L85.476 55.48C80.394 80.44 36.121 61.805 23.923 53.447C16.13 48.139 8.78898 35.715 10.144 27.922C9.91798 27.809 9.69197 27.696 9.46597 27.357C7.99797 24.533 4.38397 17.192 4.38397 11.658H4.27097C-1.48903 13.917 -0.0210256 9.39904 0.769974 6.80204C-0.811026 1.72004 3.36797 2.73605 4.38397 2.05805C8.78897 -0.652948 11.273 0.929026 10.596 4.88203C14.436 4.76903 19.744 7.70605 25.165 10.868C32.28 2.84905 60.967 11.433 69.099 13.466C74.407 14.821 86.266 16.741 89.315 22.84C89.428 22.84 89.541 22.84 89.654 22.953C89.767 22.953 89.993 23.066 90.106 23.179C95.866 21.033 102.755 18.548 107.047 20.243C110.548 11.659 124.101 24.309 111.339 26.794C111.565 28.375 111.565 30.408 111.339 32.78C110.661 39.218 100.158 43.961 92.139 46.785C92.478 47.463 92.252 48.14 91.8 48.592C89.09 51.527 89.09 52.656 85.702 54.012ZM11.499 24.76C13.645 21.598 18.501 20.129 27.198 22.049C28.214 22.275 29.457 22.614 30.812 22.953C23.697 20.017 18.501 16.854 17.372 13.918C17.259 13.579 17.485 13.2401 17.824 13.1271C18.163 13.0141 18.502 13.24 18.615 13.579C18.615 13.692 18.728 13.805 18.728 13.918C22.794 22.05 66.841 32.666 77.344 33.231C85.476 33.57 94.059 31.65 100.949 27.245C101.062 27.132 101.175 27.1321 101.288 27.0191C101.514 26.6801 101.966 26.68 102.304 26.906C102.53 27.132 102.53 27.584 102.304 27.81C96.657 31.763 89.429 34.022 82.539 34.474C77.457 34.926 66.05 33.119 54.304 30.182C66.615 34.813 79.038 40.573 84.007 46.445C90.783 44.073 99.028 41.476 104.788 37.297C110.548 33.005 110.096 22.0501 102.303 22.5021C97.672 22.8411 94.849 24.309 91.461 25.777C86.943 27.697 81.409 29.504 68.986 28.262C50.125 26.455 41.09 24.083 25.955 15.048C25.842 15.048 25.842 15.048 25.842 15.048C25.616 15.161 25.277 15.161 25.051 15.161C24.712 15.048 24.486 14.935 24.26 14.822C23.921 14.483 23.808 14.144 23.808 13.693C23.469 13.467 23.13 13.354 22.792 13.128C5.62597 2.39803 4.04497 10.19 11.499 24.76ZM5.17497 8.15803C5.62697 7.14203 6.41697 6.35105 7.43397 5.78605C7.43397 5.44705 7.43397 5.22103 7.54697 4.99503C7.65997 4.65603 7.77297 3.97905 7.65997 3.52705C6.98197 3.86605 5.96597 4.65605 3.36797 5.33405C3.70697 9.28705 3.36797 7.25404 2.91597 8.94804C3.70697 8.60904 4.27097 8.38305 5.06197 8.15705C5.06197 8.15705 5.06197 8.15803 5.17497 8.15803ZM109.645 22.162C109.984 22.614 110.323 23.178 110.661 23.856C110.774 23.856 110.887 23.856 111 23.856C111.452 23.63 112.92 23.065 113.711 22.727C113.372 22.049 110.662 18.096 109.758 21.823C109.758 21.936 109.645 22.049 109.645 22.162ZM30.248 29.616C44.704 29.39 58.144 36.505 70.568 43.395C71.246 43.734 71.923 44.186 72.375 44.524C75.199 46.331 75.311 47.573 77.796 51.978C78.248 52.656 77.909 53.559 77.231 54.011C76.553 54.463 75.65 54.1241 75.198 53.4461C74.746 52.7681 74.407 52.204 74.182 51.639C72.601 48.59 72.375 47.799 69.213 46.105C65.825 44.185 62.324 42.2651 58.822 40.5711C50.916 36.6181 42.671 33.343 33.975 32.665C33.184 32.665 32.281 32.552 31.49 32.552C31.151 32.552 30.925 32.552 30.586 32.552C30.021 32.665 29.457 32.326 29.118 31.874C29.005 31.761 28.892 31.535 28.892 31.309C28.779 30.407 29.457 29.729 30.248 29.616ZM45.156 17.306C44.93 17.306 44.704 17.306 44.478 17.306C44.478 17.306 44.365 17.4191 44.365 17.5321C44.252 17.5321 44.252 17.532 44.252 17.645C43.913 17.871 43.574 17.871 43.348 17.645C43.235 17.532 43.122 17.419 43.122 17.193C43.122 17.08 43.122 16.854 43.348 16.628C44.026 15.837 43.687 15.837 45.268 16.063C45.607 16.063 45.833 16.402 45.833 16.741C45.833 16.854 45.833 16.967 45.72 17.08C45.608 17.306 45.382 17.419 45.156 17.306ZM50.238 16.5151C50.803 16.8541 51.142 17.419 51.254 17.983C51.254 18.322 51.254 18.548 51.028 18.887C51.028 19 50.915 19 50.915 19.113C50.689 19.452 50.237 19.678 49.786 19.678C49.334 19.565 49.108 19.226 49.221 18.887C49.221 18.774 49.221 18.661 49.334 18.548C49.447 18.435 49.673 18.322 49.899 18.322C49.899 18.209 49.899 17.87 49.786 17.757H49.673C49.447 17.531 49.334 17.192 49.447 16.966C49.56 16.628 49.899 16.4021 50.238 16.5151ZM58.709 20.581C58.709 20.581 58.822 20.581 58.822 20.694C59.048 20.694 59.161 20.694 59.274 20.694C59.613 20.807 59.952 21.146 59.839 21.485C59.839 21.824 59.5 22.05 59.161 22.05C57.693 21.711 57.128 20.921 57.354 20.13C57.467 19.791 57.806 19.565 58.258 19.339C58.597 19.226 58.936 19.452 59.049 19.791C59.049 20.017 59.049 20.243 58.936 20.469H58.823C58.822 20.581 58.709 20.581 58.709 20.581ZM63.904 19.79C64.356 19.79 64.695 20.016 64.92 20.242C65.259 20.581 65.372 21.033 65.259 21.484C65.259 21.597 65.146 21.597 65.146 21.71C64.92 22.162 64.581 22.501 64.017 22.501C63.678 22.501 63.452 22.275 63.452 21.823C63.452 21.71 63.452 21.484 63.565 21.371C63.678 21.371 63.791 21.258 63.904 21.258C63.904 21.145 64.017 21.145 64.017 21.145C63.904 21.032 63.904 21.0321 63.791 21.0321C63.452 21.0321 63.113 20.693 63.226 20.354C63.226 20.241 63.226 20.1281 63.339 20.0151C63.452 19.7901 63.678 19.677 63.904 19.79ZM68.422 21.936C68.535 21.936 68.535 21.936 68.535 22.049C68.761 22.162 68.874 22.388 68.987 22.501C69.552 23.292 69.326 24.308 68.422 24.986C68.083 25.099 67.631 24.986 67.518 24.647C67.292 24.421 67.405 23.969 67.744 23.856C68.083 23.517 68.083 23.291 67.744 23.065C67.518 22.839 67.405 22.5 67.518 22.161C67.631 22.048 67.744 21.935 67.857 21.935C67.97 21.823 68.309 21.823 68.422 21.936ZM72.488 22.162C72.827 22.501 72.827 22.501 72.94 22.727C72.94 22.84 73.053 22.953 73.166 23.292C73.166 23.292 73.166 23.292 73.166 23.405C73.166 23.631 72.94 23.97 72.601 23.97C72.262 24.083 71.923 23.744 71.81 23.405C71.697 23.179 71.697 23.292 71.584 23.066L71.471 22.84C71.358 22.727 71.358 22.614 71.358 22.501C71.358 22.275 71.471 22.049 71.584 21.936C71.923 21.823 72.375 21.823 72.488 22.162Z" fill="white"/>
</svg>
