<svg width="627" height="184" viewBox="0 0 627 184" fill="none" xmlns="http://www.w3.org/2000/svg">
<path d="M621.435 94.9531C628.551 95.3844 626.611 103.579 626.611 103.579C621.004 128.595 604.398 164.177 570.11 160.511C552.426 158.57 547.897 144.337 549.407 127.085C540.134 141.103 527.195 152.101 509.727 152.101C465.303 152.101 486.652 51.3914 541.859 51.3914C548.113 51.3914 563.424 52.6853 568.816 63.6835C570.11 61.0957 570.972 58.7235 571.835 56.9983C573.56 53.3322 577.873 51.8227 582.833 51.8227C592.969 51.8227 605.692 57.8609 602.889 64.1148C595.341 81.1514 576.795 124.066 592.322 124.066C606.771 124.066 616.691 105.951 621.435 94.9531ZM528.92 125.36C542.506 125.36 551.348 105.52 555.014 96.6783C558.033 89.5618 565.365 69.0748 553.936 67.134C529.783 62.8209 503.258 125.36 528.92 125.36Z" fill="#DD2825"/>
<path d="M459.34 80.5044C465.378 81.1514 477.671 63.4679 460.418 63.4679C453.086 63.4679 440.363 68.4279 435.403 75.7601C419.013 101.854 482.199 95.8157 472.711 136.143C467.535 157.277 449.636 168.706 429.58 168.706C402.624 168.706 398.958 154.257 400.898 141.75C403.055 126.654 415.131 121.047 419.229 121.047C425.914 121.047 406.505 140.887 431.305 140.887C442.088 140.887 447.479 137.652 448.342 131.614C451.145 112.637 399.389 114.146 403.918 82.014C405.427 71.2314 416.425 41.687 463.006 41.687C513.685 41.687 481.337 96.894 468.182 95.8157C455.027 94.7375 453.302 79.6418 459.34 80.5044Z" fill="#DD2825"/>
<path d="M406.414 94.9531C413.531 95.3844 411.59 103.579 411.59 103.579C405.983 128.595 389.378 164.177 355.089 160.511C337.406 158.57 332.877 144.337 334.387 127.085C325.113 141.103 312.174 152.101 294.707 152.101C250.282 152.101 271.632 51.3914 326.839 51.3914C333.093 51.3914 348.404 52.6853 353.795 63.6835C355.089 61.0957 355.952 58.7235 356.814 56.9983C358.54 53.3322 362.853 51.8227 367.813 51.8227C377.948 51.8227 390.672 57.8609 387.868 64.1148C380.32 81.1514 361.774 124.066 377.301 124.066C391.75 124.066 401.67 105.951 406.414 94.9531ZM313.9 125.36C327.486 125.36 336.327 105.52 339.994 96.6783C343.013 89.5618 350.345 69.0748 338.915 67.134C314.762 62.8209 288.237 125.36 313.9 125.36Z" fill="#DD2825"/>
<path d="M204.362 58.9391C201.127 66.7026 195.089 81.1513 192.932 85.68C184.953 103.363 178.052 109.186 172.661 109.186C162.31 109.186 157.781 88.4835 164.035 89.1304C179.993 84.8174 186.463 71.2313 192.932 55.4887C187.11 53.5478 183.012 47.9409 183.012 41.4713C183.012 33.2765 189.913 26.5913 198.108 26.5913C206.303 26.5913 210.184 33.2765 210.184 41.4713C210.184 44.4904 209.753 47.0783 208.891 49.4504C212.125 52.0383 218.379 55.0574 229.593 53.5478C231.75 52.4696 234.338 51.8226 237.357 51.8226C247.492 51.8226 259.784 57.8609 257.197 64.1148C249.649 81.1513 231.318 124.066 246.63 124.066C260.863 124.066 270.998 105.951 275.743 94.9531C282.859 95.3844 280.918 103.579 280.918 103.579C275.311 128.595 258.706 164.177 224.418 160.511C184.306 155.767 212.125 88.6991 223.555 62.6052C217.517 62.8209 210.616 62.1739 204.362 58.9391Z" fill="#DD2825"/>
<path d="M10.5124 70.5844C-1.99541 63.2522 -5.23019 45.3531 14.1785 25.2974C33.3716 5.24174 69.6011 0.281738 97.6359 0.281738C120.711 0.281738 185.838 10.8487 170.095 65.1931C165.351 81.367 151.98 89.7774 136.453 93.6591C167.939 110.696 154.568 183.586 64.6411 183.586C15.4724 183.586 11.1594 156.414 16.1194 141.318C19.1385 132.477 23.4516 129.673 26.4707 129.673C28.4116 129.673 29.7055 130.751 29.9211 132.045C30.9994 137.005 34.4498 140.887 39.6255 143.906C39.6255 113.499 66.7976 61.3113 81.0307 34.7861C82.5403 31.9826 85.9907 30.6887 90.0881 30.6887C100.008 30.6887 113.594 38.0209 110.144 44.2748C102.165 59.3705 95.695 72.7409 90.3037 84.8174C150.686 87.4052 159.959 17.1026 99.3611 17.1026C47.389 17.1026 38.9785 55.7044 39.8411 69.0748C40.0568 71.0157 32.0776 73.6035 23.6672 73.6035C18.9229 73.6035 14.1785 72.7409 10.5124 70.5844ZM118.985 121.694C127.827 96.8939 101.733 95.3844 85.3437 96.6783C75.4237 121.263 71.1107 139.593 69.1698 149.944C89.8724 149.297 112.3 140.671 118.985 121.694Z" fill="#DD2825"/>
</svg>
