<svg width="662" height="219" viewBox="0 0 662 219" fill="none" xmlns="http://www.w3.org/2000/svg">
<path d="M615.555 60.1756L632.807 77.4277C635.395 79.7999 637.983 83.466 637.983 88.6417C637.983 90.5825 637.551 92.3078 637.12 93.8173C636.689 94.6799 636.257 95.5425 635.826 96.4051C637.551 97.0521 639.061 98.1304 640.139 99.2086L657.391 116.461C660.411 119.48 661.704 123.793 661.704 127.459L661.273 131.772C654.157 161.748 636.258 195.605 601.106 195.605C590.108 195.605 581.913 192.37 576.306 186.763L565.955 176.628C557.76 182.882 547.84 186.979 535.979 186.979C526.275 186.979 519.374 183.744 514.414 178.784L497.162 161.532C488.751 153.122 486.164 139.967 486.164 129.831C486.164 94.2486 511.61 51.7651 550.859 51.7651C557.544 51.7651 567.68 52.8434 575.875 58.2347C579.972 53.4904 585.579 52.1964 591.833 52.1964C599.165 52.1964 609.732 55.4312 615.555 60.1756Z" fill="white"/>
<path d="M420.034 123.577L413.349 116.892C407.958 111.501 404.076 104.384 404.076 94.8956C404.076 86.7008 406.448 79.153 410.761 72.0364C423.916 50.0399 447.207 42.0608 472.007 42.0608C480.633 42.0608 493.14 44.0017 501.12 51.7651L518.372 69.0173C522.469 73.3304 525.488 79.3686 525.488 87.7791C525.488 102.659 512.765 127.459 498.1 130.263C503.923 136.085 508.452 143.633 508.452 154.416C508.452 183.097 483.652 203.584 455.833 203.584C446.128 203.584 433.62 201.428 425.641 193.664L408.389 176.412C403.86 171.883 400.841 165.198 400.841 155.925C400.841 153.769 401.057 151.396 401.273 149.24C403.213 138.673 409.252 128.753 419.172 124.009C419.387 123.793 419.603 123.577 420.034 123.577Z" fill="white"/>
<path d="M400.534 60.1756L417.787 77.4277C420.374 79.7999 422.962 83.466 422.962 88.6417C422.962 90.5825 422.531 92.3078 422.1 93.8173C421.668 94.6799 421.237 95.5425 420.806 96.4051C422.531 97.0521 424.04 98.1304 425.119 99.2086L442.371 116.461C445.39 119.48 446.684 123.793 446.684 127.459L446.253 131.772C439.136 161.748 421.237 195.605 386.086 195.605C375.087 195.605 366.893 192.37 361.286 186.763L350.934 176.628C342.74 182.882 332.82 186.979 320.959 186.979C311.254 186.979 304.353 183.744 299.393 178.784L282.141 161.532C273.731 153.122 271.143 139.967 271.143 129.831C271.143 94.2486 296.59 51.7651 335.839 51.7651C342.524 51.7651 352.66 52.8434 360.854 58.2347C364.952 53.4904 370.559 52.1964 376.813 52.1964C384.145 52.1964 394.712 55.4312 400.534 60.1756Z" fill="white"/>
<path d="M203.873 143.417C202.363 143.849 200.638 144.064 198.913 144.064C193.737 144.064 189.856 142.123 186.837 139.104L169.584 121.852C163.762 116.029 161.605 106.756 161.605 102.443C161.605 95.5425 164.409 91.8764 170.663 89.7199C181.877 86.4851 186.621 77.859 191.15 67.939C186.19 63.4103 183.386 57.1564 183.386 50.4712C183.386 37.5321 194.169 26.9651 207.108 26.9651C213.362 26.9651 217.89 29.1216 221.125 32.3564L238.377 49.6086C239.24 50.4712 240.103 51.7651 240.965 52.8434C242.906 52.4121 244.847 52.1964 246.357 52.1964C253.689 52.1964 264.256 55.2155 269.863 60.3912L287.115 77.6434C289.703 79.7999 292.506 83.466 292.506 88.6416C292.506 91.2294 291.428 94.0329 290.35 96.4051C291.859 97.0521 293.369 98.1303 294.447 99.2086L311.699 116.461C314.718 119.48 316.012 123.577 316.012 127.459L315.581 131.772C308.68 161.748 290.35 195.605 255.414 195.605C244.416 195.605 236.221 192.37 230.83 186.763L213.577 169.511C207.108 163.257 204.089 153.984 203.873 143.417Z" fill="white"/>
<path d="M50.1351 108.482H49.9194C41.0777 108.482 32.0203 105.462 25.7664 99.2086L8.51421 81.9564C3.76986 77.212 0.750732 70.5268 0.750732 61.9007C0.750732 47.8833 9.59247 36.0225 16.9246 28.259C39.3525 4.96856 79.6794 0.655518 106.636 0.655518C126.26 0.655518 158.177 6.47813 176.292 24.5929L193.544 41.8451C201.954 50.2555 207.346 61.2538 207.346 75.7025C207.346 96.6207 197.857 114.089 179.095 123.146C184.486 130.694 186.859 139.967 186.859 148.593C186.859 158.944 183.624 168.864 178.879 177.275C161.196 207.897 124.535 218.464 90.8934 218.464C74.7194 218.464 54.4481 215.229 42.3716 203.153L25.1194 185.901C19.0812 179.647 14.9838 171.236 14.9838 160.238C14.9838 155.709 16.062 149.24 18.6499 143.633C21.2377 136.516 27.4916 130.047 35.4707 130.047C38.2742 130.047 40.6464 130.909 42.8029 132.419C44.7438 123.793 47.5473 115.382 50.1351 108.482Z" fill="white"/>
<path d="M630.435 103.953C637.551 104.384 635.611 112.579 635.611 112.579C630.004 137.595 613.398 173.177 579.11 169.511C561.426 167.57 556.897 153.337 558.407 136.085C549.134 150.103 536.195 161.101 518.727 161.101C474.303 161.101 495.652 60.3914 550.859 60.3914C557.113 60.3914 572.424 61.6853 577.816 72.6835C579.11 70.0957 579.972 67.7235 580.835 65.9983C582.56 62.3322 586.873 60.8227 591.833 60.8227C601.969 60.8227 614.692 66.8609 611.889 73.1148C604.341 90.1514 585.795 133.066 601.322 133.066C615.771 133.066 625.691 114.951 630.435 103.953ZM537.92 134.36C551.506 134.36 560.348 114.52 564.014 105.678C567.033 98.5618 574.365 78.0748 562.936 76.134C538.783 71.8209 512.258 134.36 537.92 134.36Z" fill="#DD2825"/>
<path d="M468.34 89.5044C474.378 90.1514 486.671 72.4679 469.418 72.4679C462.086 72.4679 449.363 77.4279 444.403 84.7601C428.013 110.854 491.199 104.816 481.711 145.143C476.535 166.277 458.636 177.706 438.58 177.706C411.624 177.706 407.958 163.257 409.898 150.75C412.055 135.654 424.131 130.047 428.229 130.047C434.914 130.047 415.505 149.887 440.305 149.887C451.088 149.887 456.479 146.652 457.342 140.614C460.145 121.637 408.389 123.146 412.918 91.014C414.427 80.2314 425.425 50.687 472.006 50.687C522.685 50.687 490.337 105.894 477.182 104.816C464.027 103.737 462.302 88.6418 468.34 89.5044Z" fill="#DD2825"/>
<path d="M415.414 103.953C422.531 104.384 420.59 112.579 420.59 112.579C414.983 137.595 398.378 173.177 364.089 169.511C346.406 167.57 341.877 153.337 343.387 136.085C334.113 150.103 321.174 161.101 303.707 161.101C259.282 161.101 280.632 60.3914 335.839 60.3914C342.093 60.3914 357.404 61.6853 362.795 72.6835C364.089 70.0957 364.952 67.7235 365.814 65.9983C367.54 62.3322 371.853 60.8227 376.813 60.8227C386.948 60.8227 399.672 66.8609 396.868 73.1148C389.32 90.1514 370.774 133.066 386.301 133.066C400.75 133.066 410.67 114.951 415.414 103.953ZM322.9 134.36C336.486 134.36 345.327 114.52 348.994 105.678C352.013 98.5618 359.345 78.0748 347.915 76.134C323.762 71.8209 297.237 134.36 322.9 134.36Z" fill="#DD2825"/>
<path d="M213.362 67.9391C210.127 75.7026 204.089 90.1513 201.932 94.68C193.953 112.363 187.052 118.186 181.661 118.186C171.31 118.186 166.781 97.4835 173.035 98.1304C188.993 93.8174 195.463 80.2313 201.932 64.4887C196.11 62.5478 192.012 56.9409 192.012 50.4713C192.012 42.2765 198.913 35.5913 207.108 35.5913C215.303 35.5913 219.184 42.2765 219.184 50.4713C219.184 53.4904 218.753 56.0783 217.891 58.4504C221.125 61.0383 227.379 64.0574 238.593 62.5478C240.75 61.4696 243.338 60.8226 246.357 60.8226C256.492 60.8226 268.784 66.8609 266.197 73.1148C258.649 90.1513 240.318 133.066 255.63 133.066C269.863 133.066 279.998 114.951 284.743 103.953C291.859 104.384 289.918 112.579 289.918 112.579C284.311 137.595 267.706 173.177 233.418 169.511C193.306 164.767 221.125 97.6991 232.555 71.6052C226.517 71.8209 219.616 71.1739 213.362 67.9391Z" fill="#DD2825"/>
<path d="M19.5124 79.5844C7.00459 72.2522 3.76981 54.3531 23.1785 34.2974C42.3716 14.2417 78.6011 9.28174 106.636 9.28174C129.711 9.28174 194.838 19.8487 179.095 74.1931C174.351 90.367 160.98 98.7774 145.453 102.659C176.939 119.696 163.568 192.586 73.6411 192.586C24.4724 192.586 20.1594 165.414 25.1194 150.318C28.1385 141.477 32.4516 138.673 35.4707 138.673C37.4116 138.673 38.7055 139.751 38.9211 141.045C39.9994 146.005 43.4498 149.887 48.6255 152.906C48.6255 122.499 75.7976 70.3113 90.0307 43.7861C91.5403 40.9826 94.9907 39.6887 99.0881 39.6887C109.008 39.6887 122.594 47.0209 119.144 53.2748C111.165 68.3705 104.695 81.7409 99.3037 93.8174C159.686 96.4052 168.959 26.1026 108.361 26.1026C56.389 26.1026 47.9785 64.7044 48.8411 78.0748C49.0568 80.0157 41.0776 82.6035 32.6672 82.6035C27.9229 82.6035 23.1785 81.7409 19.5124 79.5844ZM127.985 130.694C136.827 105.894 110.733 104.384 94.3437 105.678C84.4237 130.263 80.1107 148.593 78.1698 158.944C98.8724 158.297 121.3 149.671 127.985 130.694Z" fill="#DD2825"/>
</svg>
