<svg width="98" height="98" viewBox="0 0 98 98" fill="none" xmlns="http://www.w3.org/2000/svg">
<path fill-rule="evenodd" clip-rule="evenodd" d="M82.026 23.5671C83.042 26.2761 82.59 24.9221 83.155 27.6311C83.268 27.9701 83.042 28.3081 82.703 28.4211C82.251 28.5341 81.913 28.3081 81.913 27.9691C81.349 25.2601 81.687 26.5021 80.897 24.1311C80.671 23.7921 80.784 23.4541 81.123 23.2281C81.461 23.1161 81.913 23.2291 82.026 23.5671ZM79.43 78.3131C79.656 86.3271 70.625 87.0051 64.078 85.1991C59.789 87.7951 57.757 89.9401 50.984 91.5201C48.501 92.1971 41.615 86.6661 35.407 81.3611C35.294 81.5871 35.068 81.7001 34.73 81.7001C26.716 81.2481 24.007 80.6841 16.895 76.6201C13.509 74.8141 5.83299 66.6871 9.55799 63.5261C8.76799 62.8491 8.09098 62.2841 7.52598 61.7201C-3.76202 72.1051 14.524 83.7311 23.442 86.6661C38.681 91.7461 58.999 97.0511 74.915 92.3101C83.607 89.8271 83.494 85.0861 80.672 77.9741C80.333 78.0881 79.881 78.2011 79.43 78.3131ZM65.771 84.1831C70.963 85.3121 78.301 84.9731 78.188 78.5391C77.285 78.7651 76.269 78.8781 75.253 78.9911C75.027 79.3301 74.689 79.4431 74.35 79.5551C71.189 81.3611 70.399 81.7001 66.787 83.6191C66.449 83.8451 66.11 83.9571 65.771 84.1831ZM13.396 54.4961C13.509 55.2861 13.509 54.9481 13.509 55.6251C13.509 55.9641 13.17 56.3021 12.832 56.3021C12.493 56.3021 12.155 55.9631 12.155 55.6251C12.155 55.0611 12.155 55.2861 12.155 54.8351C12.042 54.4961 12.268 54.1581 12.607 54.0451C12.944 53.9321 13.283 54.1571 13.396 54.4961ZM13.734 58.7851C13.734 59.1241 13.621 59.0111 13.734 59.3491C13.847 59.6881 13.621 60.0261 13.282 60.1391C12.943 60.2521 12.605 60.0261 12.492 59.6871C12.379 59.2351 12.379 59.2351 12.379 58.7841C12.379 58.4451 12.718 58.1071 13.056 58.1071C13.396 58.1081 13.734 58.4471 13.734 58.7851ZM18.475 56.5281C18.475 57.2051 18.475 57.3181 18.362 57.9951C18.362 58.3341 18.023 58.5591 17.685 58.5591C17.346 58.5591 17.008 58.2201 17.121 57.8821C17.121 57.4301 17.234 57.2051 17.121 56.7531C17.121 56.4141 17.347 56.0761 17.685 55.9631C18.024 55.8511 18.362 56.1891 18.475 56.5281ZM17.685 61.6071C17.911 61.9461 17.798 61.7201 18.024 62.1711C18.137 62.5101 17.911 62.8481 17.572 62.9611C17.12 63.0741 16.782 62.8481 16.782 62.5091C16.669 62.2831 16.669 62.3961 16.556 62.0571C16.443 61.7181 16.556 61.3801 16.895 61.2671C17.234 61.0431 17.572 61.2691 17.685 61.6071ZM21.41 64.7681V65.1071C21.523 65.4461 21.297 65.7841 20.958 65.8971C20.619 66.0101 20.281 65.7841 20.168 65.4451L20.055 65.1061C20.055 64.7671 20.168 64.4291 20.619 64.3161C20.958 64.2041 21.297 64.4291 21.41 64.7681ZM23.893 62.3981C24.345 62.8501 24.57 63.1881 24.57 63.8651C24.57 64.2041 24.231 64.4291 23.893 64.4291C23.554 64.4291 23.216 64.0901 23.216 63.7521C23.216 63.6391 23.103 63.5261 23.103 63.4131C22.764 63.1871 22.764 62.8491 22.877 62.5101C23.103 62.2851 23.555 62.1721 23.893 62.3981ZM26.377 66.8001C26.603 67.0261 26.716 67.0261 26.941 67.1391C27.28 67.2521 27.393 67.7031 27.167 68.0421C27.054 68.2681 26.715 68.4941 26.377 68.2681C26.038 68.1551 25.925 68.1551 25.7 67.9291C25.361 67.7031 25.248 67.3651 25.474 67.0261C25.699 66.6871 26.038 66.6871 26.377 66.8001ZM51.549 70.7511H51.775C52.227 70.7511 52.452 71.0901 52.452 71.4281C52.452 71.7671 52.226 72.1051 51.775 72.1051H51.549C51.21 72.1051 50.985 71.7661 50.985 71.4281C50.984 71.0891 51.21 70.7511 51.549 70.7511ZM57.983 70.1861C57.983 70.2991 58.096 70.4121 58.322 70.5251H58.209C58.661 70.5251 58.886 70.8641 58.773 71.2021C58.773 71.5411 58.434 71.8791 58.096 71.7661C57.532 71.6531 57.306 71.4271 56.854 70.9761C56.628 70.7501 56.741 70.2991 57.08 70.0731C57.305 69.8481 57.757 69.9601 57.983 70.1861ZM65.433 73.1211L65.772 73.4601C65.998 73.6861 65.998 74.1371 65.772 74.3631C65.546 74.7021 65.095 74.7021 64.869 74.3631L64.417 74.0241C64.191 73.7981 64.191 73.3471 64.417 73.1211C64.755 72.8951 65.094 72.8951 65.433 73.1211ZM68.255 72.3311L68.481 72.4441C68.82 72.5571 68.933 72.8961 68.82 73.2341C68.707 73.5721 68.368 73.7981 68.03 73.6861L67.804 73.5731C67.465 73.4601 67.24 73.1211 67.352 72.7831C67.465 72.4441 67.916 72.2181 68.255 72.3311ZM70.399 69.2831C70.738 69.5091 70.738 69.3961 70.738 69.6221C71.19 69.6221 71.415 69.9611 71.415 70.2991C71.415 70.6371 71.076 70.8631 70.738 70.8631C69.948 70.5241 70.286 70.7501 69.722 70.4111C69.496 70.2981 69.27 69.8471 69.496 69.5081C69.609 69.2831 70.061 69.0571 70.399 69.2831ZM75.93 67.1391C76.494 67.5911 76.156 67.3651 76.72 67.9291C76.946 68.1551 76.833 68.6061 76.607 68.8321C76.268 69.0581 75.817 68.9451 75.704 68.6061C75.365 68.3801 75.478 68.4931 75.14 68.1541C74.801 67.9281 74.801 67.5901 75.027 67.2511C75.253 67.0261 75.592 66.9131 75.93 67.1391ZM72.996 73.0081C73.335 73.0081 73.56 73.2341 73.56 73.5721C73.56 74.0241 73.334 74.2491 72.996 74.2491C72.093 74.2491 71.641 74.0231 71.641 73.1201C71.641 72.7811 71.98 72.4431 72.318 72.4431C72.657 72.4441 72.883 72.6701 72.996 73.0081ZM75.366 71.2021C75.93 71.2021 75.818 71.2021 76.269 71.4281C76.608 71.5411 76.833 71.9921 76.608 72.3311C76.495 72.6701 76.156 72.7831 75.818 72.6701C75.705 72.6701 75.479 72.4441 75.366 72.4441C75.027 72.4441 74.689 72.2181 74.689 71.8801C74.689 71.4281 75.027 71.2021 75.366 71.2021ZM78.978 72.5571H79.43C79.769 72.5571 79.994 72.7831 79.994 73.2341C79.994 73.5731 79.768 73.7981 79.43 73.7981H78.978C78.526 73.7981 78.301 73.5721 78.301 73.2341C78.301 72.7821 78.527 72.5571 78.978 72.5571ZM81.687 69.8481C82.026 69.7351 82.026 69.7351 82.251 69.3961C82.59 69.1701 82.928 69.2831 83.154 69.5091C83.493 69.7351 83.38 70.1861 83.154 70.4121C82.702 70.8641 82.702 70.8641 82.138 71.0891C81.686 71.2021 81.348 70.9761 81.235 70.6371C81.122 70.2981 81.349 69.9601 81.687 69.8481ZM79.994 67.9291L79.881 67.5901C79.768 67.2511 79.994 66.9131 80.333 66.8001C80.785 66.6871 81.123 66.9131 81.123 67.2521L81.236 67.7041C81.349 68.0431 81.123 68.3811 80.672 68.4941C80.333 68.4931 79.994 68.2671 79.994 67.9291ZM77.172 59.5761C77.059 59.8021 76.833 59.9151 76.495 59.9151C76.156 59.8021 75.931 59.4631 76.043 59.1251C76.156 58.5611 76.607 58.3351 77.172 58.3351C77.511 58.3351 77.849 58.5611 77.849 59.0121C77.849 59.3501 77.511 59.5761 77.172 59.5761ZM73.56 55.5121C73.334 55.7381 73.334 55.7381 73.221 56.0761C72.995 56.3021 72.657 56.4151 72.318 56.3021C71.979 56.0761 71.866 55.6251 72.092 55.3991C72.205 55.0601 72.205 54.9471 72.544 54.7221C72.77 54.3831 73.108 54.3831 73.447 54.6091C73.673 54.8351 73.786 55.1731 73.56 55.5121ZM67.916 58.1081L67.69 58.3341C67.464 58.6731 67.013 58.6731 66.674 58.4471C66.448 58.2211 66.335 57.8831 66.561 57.5441C66.9 57.2051 66.561 57.6571 66.787 57.3181C67.013 56.9791 67.464 56.8661 67.69 57.0921C68.029 57.3181 68.029 57.7701 67.916 58.1081ZM72.883 60.1401C72.77 60.9301 72.544 61.1561 71.754 61.1561C71.302 61.1561 71.077 60.9301 71.077 60.4791C71.077 60.2531 71.303 60.0271 71.529 59.9151C71.642 59.5761 71.868 59.4631 72.206 59.4631C72.544 59.4631 72.883 59.8011 72.883 60.1401ZM14.75 44.1111C15.089 44.3371 15.202 44.4501 15.314 44.7881C15.427 45.1271 15.201 45.5781 14.862 45.5781C14.523 45.6911 14.185 45.4651 14.072 45.1261H13.959C13.733 44.9001 13.62 44.4491 13.846 44.2231C14.073 43.8851 14.524 43.8851 14.75 44.1111ZM19.604 46.9331C20.056 47.3851 20.056 47.3851 20.394 47.8361C20.62 48.0621 20.62 48.5131 20.281 48.7391C20.055 48.9651 19.604 48.9651 19.378 48.6261C19.039 48.2871 19.152 48.2871 18.814 47.9491C18.475 47.7231 18.475 47.2721 18.701 47.0461C18.927 46.8201 19.378 46.7071 19.604 46.9331ZM23.555 47.3851C23.894 47.8371 24.007 47.9491 24.232 48.2881C24.458 48.6271 24.345 49.0781 24.006 49.1911C23.78 49.4171 23.329 49.3041 23.103 49.0781C22.877 48.7391 22.877 48.6261 22.539 48.2881C22.313 48.0621 22.426 47.6111 22.652 47.3851C22.877 47.1591 23.329 47.1591 23.555 47.3851ZM22.652 50.3201C22.652 50.4331 23.329 50.7721 23.329 50.7721C23.668 50.8851 23.781 51.3361 23.668 51.6751C23.555 51.9011 23.104 52.1271 22.765 51.9011L21.975 51.5621C21.749 51.3361 21.523 50.9981 21.749 50.6591C21.862 50.3201 22.313 50.2071 22.652 50.3201ZM27.618 52.4641C27.957 52.8031 27.731 52.6901 28.182 53.1411C28.408 53.4801 28.295 53.9311 27.956 54.0441C27.617 54.1571 27.166 54.0441 27.053 53.7051C26.94 53.5921 26.94 53.7051 26.714 53.4791C26.488 53.2531 26.375 52.9151 26.601 52.5761C26.828 52.3511 27.28 52.2391 27.618 52.4641ZM10.687 64.3171C7.52599 66.4621 14.864 74.0251 17.46 75.4921C24.12 79.2171 26.716 79.8941 33.827 80.3461L34.279 80.4591C32.924 79.2171 31.457 77.9761 30.215 76.8471C29.989 76.9601 29.651 77.0731 29.312 77.0731C25.248 77.6371 14.186 74.8151 13.396 66.2371C12.38 65.5581 11.477 64.9941 10.687 64.3171ZM14.863 67.2511C16.218 72.6691 23.216 75.9431 27.731 75.9431C28.295 75.9431 28.747 75.9431 29.198 75.8301C27.166 74.1371 25.586 72.6691 24.57 71.9921C24.231 71.8791 23.893 71.5401 23.667 71.2021C20.055 69.9601 17.12 68.7191 15.314 67.5901L14.863 67.2511ZM64.53 5.16807C49.178 3.58807 25.474 0.766075 15.654 12.9571C12.493 16.7951 11.59 22.1001 13.171 26.7281C14.526 30.3401 17.235 33.3881 21.637 34.9681C28.184 37.3381 35.295 36.8871 43.535 39.7091C49.856 41.7411 78.189 46.8201 83.607 43.6601C85.187 42.6441 86.429 41.5151 87.332 40.3871C94.218 30.9051 81.801 14.8761 75.141 9.00708C72.432 6.63708 69.271 6.07207 65.772 5.95907C65.32 5.95807 64.755 5.62007 64.53 5.16807ZM70.174 3.36207C72.657 3.81407 75.028 4.82908 77.172 6.74808C84.735 13.4081 96.136 29.0981 91.169 39.8211C93.427 40.7241 96.926 42.6431 97.49 44.5621C99.183 50.8831 93.088 50.8831 90.379 50.8831C91.621 53.9311 92.298 58.3331 89.363 60.4781C88.573 61.0421 87.557 61.6071 86.541 62.0581C88.347 64.9931 88.121 71.0881 86.767 73.6851C86.09 74.9271 84.961 75.9431 83.494 76.7331C88.009 85.3121 85.074 92.5361 75.705 95.2451C59.225 100.099 38.568 94.9061 22.652 89.6011C10.8 85.6501 -8.05103 71.8791 5.60697 59.3501C3.68797 56.0771 4.70399 52.6901 8.31599 46.7081C3.68799 41.0641 6.05797 37.9031 10.348 34.2911C3.46197 32.4851 5.38097 26.6151 9.67097 25.0351C8.65497 19.1651 10.687 12.8441 15.541 8.78007C28.974 -3.07193 52.678 1.10407 68.82 2.57207C69.383 2.57207 69.835 2.91107 70.174 3.36207ZM89.589 42.4181C88.573 43.7731 87.106 45.0141 85.3 46.1431C83.72 47.0461 81.123 47.4981 77.85 47.6101C76.608 47.7231 75.367 47.7231 74.012 47.6101C74.915 48.0621 76.044 48.8521 77.173 50.3191C78.866 52.3511 81.011 57.9951 84.962 54.9471C87.107 53.2541 85.865 50.9961 86.542 49.5291C86.994 48.5131 88.348 47.8361 92.073 47.8361C94.443 47.9491 94.556 47.6101 94.556 45.4661C93.991 44.5631 91.395 43.2081 89.589 42.4181ZM71.641 47.4981C60.692 46.8211 47.033 43.9991 42.067 42.3061C35.407 40.0481 29.199 40.1611 23.216 38.5811C23.668 39.4841 24.006 40.9511 23.893 43.4351C27.392 47.7241 30.101 33.3891 33.826 46.2571C34.052 46.8211 34.39 48.4021 34.842 49.0791C39.696 50.8851 43.872 38.2431 47.033 50.3211C49.403 59.0131 52.564 38.8071 61.143 49.8691C63.513 52.9171 61.707 54.0451 66.674 53.2551C67.803 52.4641 69.271 48.4011 71.641 47.4981ZM20.846 37.9031H20.733C18.701 37.1131 17.121 36.2101 15.653 35.0811C15.089 37.3391 13.621 39.8221 16.669 39.5961C17.798 39.5961 19.378 38.3541 20.846 37.9031ZM12.38 31.6951C11.59 30.4531 10.913 29.2121 10.461 27.8571C8.65498 28.6471 7.41298 31.1301 12.38 31.6951ZM88.347 54.8351C85.977 60.4791 79.542 59.2371 77.172 55.8511C69.722 44.9021 73.334 53.4811 68.029 55.9641C58.547 60.4791 58.999 43.9991 53.242 52.0131C52 53.5931 50.984 54.7221 49.969 55.2861C48.163 56.3021 46.808 55.6251 45.792 54.3831C44.212 52.4641 43.422 48.9651 43.196 48.2881C41.503 49.5301 40.374 50.8841 38.455 51.7871C37.665 52.2391 36.875 52.4641 36.31 52.5771C35.294 52.6901 34.504 52.4641 33.94 52.1251C31.908 50.7701 31.231 47.1581 30.215 44.5621C29.538 45.5781 28.86 46.2551 27.167 46.8201C20.959 48.7391 20.959 43.0951 20.846 41.0631C19.153 41.8531 18.137 42.9821 15.654 42.5301C11.703 41.8531 11.477 39.2571 12.042 36.7731C8.31697 40.0461 6.62397 41.9651 13.848 48.1741C14.187 48.5131 14.525 48.7381 14.864 49.0771C23.104 55.9631 33.15 58.3331 43.422 60.9291C51.211 62.8481 68.82 63.9771 80.22 61.1551C83.155 60.3651 85.638 59.4621 87.444 58.1071C88.46 57.4311 88.573 56.1891 88.347 54.8351ZM83.606 63.1881C71.641 67.1391 51.774 66.0101 42.631 63.7521C30.892 60.9301 19.039 57.8821 10.348 49.0781C6.84897 55.1731 6.62298 57.4311 11.138 61.0431C12.605 62.1721 14.637 63.5261 17.121 65.1071C20.959 67.5901 31.682 70.9771 43.422 73.3471C48.84 74.4761 54.597 75.3791 59.902 75.9431C66.675 76.5071 72.77 76.6201 77.285 75.8301C81.123 75.0401 83.719 73.6851 84.509 71.4281C85.186 69.3961 84.961 64.9941 83.719 63.3011L83.606 63.1881ZM68.48 79.3291C56.966 79.3291 42.292 76.6201 31.004 73.5721C37.664 79.2161 45.114 86.3271 50.419 88.5851C60.352 84.9731 57.079 85.4241 65.319 81.0221C66.787 80.2321 67.803 79.6681 68.48 79.3291ZM29.537 15.2141C29.198 15.6661 28.86 16.1171 28.634 16.5691C28.634 16.9081 28.408 17.2461 28.07 17.2461C27.731 17.2461 27.393 17.0201 27.393 16.6821C27.506 15.6661 28.183 14.6501 28.973 14.0861C29.312 13.9731 29.65 14.0861 29.876 14.4251C29.989 14.7631 29.763 15.1011 29.537 15.2141ZM41.841 10.6991C41.164 11.3761 41.502 11.0381 40.938 11.7151C40.712 12.0541 40.374 12.0541 40.035 11.8281C39.696 11.7151 39.696 11.2641 39.922 10.9251C40.599 10.0221 40.261 10.4731 41.051 9.68307C41.39 9.45707 41.841 9.57007 41.954 9.79607C42.18 10.1351 42.18 10.5861 41.841 10.6991ZM47.033 18.2621C46.581 19.2781 46.807 18.8261 46.356 19.8421C46.243 20.1811 45.904 20.2941 45.566 20.1811C45.227 20.0681 45.002 19.7291 45.227 19.3911C45.679 18.2621 45.453 18.8271 45.904 17.8111C46.017 17.4721 46.356 17.2471 46.694 17.3591C47.033 17.5851 47.259 17.9231 47.033 18.2621ZM55.048 9.57007C55.387 10.4731 55.274 10.9251 55.274 11.8281C55.274 12.1671 54.935 12.5051 54.597 12.5051C54.258 12.5051 53.92 12.1661 53.92 11.8281C53.92 11.3761 54.033 10.5861 53.807 10.2481C53.694 9.90908 53.807 9.57108 54.146 9.34508C54.371 9.11908 54.822 9.23207 55.048 9.57007ZM61.482 18.0361C61.708 19.2781 62.046 19.7291 62.385 21.0841C62.385 21.4231 62.046 21.6481 61.708 21.6481C61.369 21.6481 61.031 21.4221 61.031 21.0841C60.692 19.8421 60.467 19.6171 60.128 18.0361C60.128 17.6971 60.354 17.3591 60.805 17.3591C61.143 17.3591 61.482 17.5851 61.482 18.0361ZM65.32 25.7121C65.546 26.6151 65.433 26.0511 65.659 27.1791C65.659 27.5181 65.32 27.7431 64.982 27.7431C64.643 27.7431 64.305 27.4041 64.418 27.0661C64.192 26.5021 64.305 26.8401 64.079 26.1631C63.966 25.7111 64.079 25.3731 64.418 25.2601C64.755 25.1481 65.207 25.3731 65.32 25.7121ZM70.174 16.3431C71.529 16.3431 72.544 18.7131 72.883 19.7291C72.996 20.0681 72.77 20.4061 72.431 20.5191C72.092 20.5191 71.754 20.2931 71.641 19.9551C71.415 19.5031 70.625 17.9231 70.174 17.5851C69.835 17.5851 69.61 17.3591 69.497 17.0211C69.496 16.6821 69.722 16.3431 70.174 16.3431Z" fill="white"/>
</svg>
