<svg width="20" height="19" viewBox="0 0 20 19" fill="none" xmlns="http://www.w3.org/2000/svg">
<path d="M8.78725 0.767583C9.11978 -0.255861 10.5677 -0.255861 10.9002 0.767583L12.4625 5.57565C12.6112 6.03338 13.0377 6.34325 13.5189 6.34325H18.5745C19.6506 6.34325 20.098 7.72027 19.2274 8.35279L15.1374 11.3244C14.7481 11.6073 14.5851 12.1087 14.7339 12.5663L16.2961 17.3745C16.6287 18.3979 15.4573 19.249 14.5867 18.6164L10.4967 15.6448C10.1073 15.362 9.58012 15.362 9.19077 15.6448L5.10078 18.6164C4.23019 19.249 3.05881 18.3979 3.39134 17.3745L4.95359 12.5663C5.1023 12.1087 4.93939 11.6073 4.55005 11.3244L0.460042 8.35279C-0.410553 7.72027 0.0368723 6.34325 1.11299 6.34325H6.16851C6.64974 6.34325 7.07631 6.03338 7.225 5.57565L8.78725 0.767583Z" fill="#FDD854"/>
</svg>
