<svg width="82" height="60" viewBox="0 0 82 60" fill="none" xmlns="http://www.w3.org/2000/svg">
<path fill-rule="evenodd" clip-rule="evenodd" d="M26.7321 9.43794C26.6191 11.4709 22.7791 14.0689 21.4241 14.8589C21.0851 14.9719 20.7461 14.8589 20.6331 14.4069C20.5201 14.0679 20.7461 13.7289 21.0851 13.6159C21.8761 13.0509 25.1511 10.6799 25.3771 9.54994C25.3771 9.21094 25.7161 8.87194 26.0551 8.87194C26.3931 8.87294 26.7321 9.09894 26.7321 9.43794ZM10.5811 42.9809C10.5811 43.2069 10.5811 43.4329 10.5811 43.6589C10.9201 48.2899 12.9531 51.2259 16.6801 53.5979C17.0191 53.7109 17.4711 53.8239 17.9221 54.0499C18.2611 54.0499 18.4871 54.1629 18.8261 54.2759C18.6001 53.0339 18.6001 52.8079 18.6001 51.2269C18.6001 50.8879 18.9391 50.5489 19.2781 50.5489C19.6171 50.5489 19.9561 50.8879 19.9561 51.2269C19.9561 52.9209 19.8431 52.8079 20.2951 54.5019V54.6149C20.6341 54.7279 21.0861 54.8409 21.4241 54.8409C21.3111 54.2759 21.4241 54.3889 21.4241 52.6949C21.4241 52.2429 21.6501 52.0169 21.9891 52.0169C22.4411 52.0169 22.6671 52.2429 22.6671 52.6949C22.6671 54.6149 22.6671 54.0499 22.7801 55.1799C25.6041 55.7449 28.5401 56.1959 31.5891 56.4219C31.4761 55.5179 31.2501 54.6149 31.1371 54.1629C31.0241 53.8239 31.2501 53.3719 31.5891 53.2589C31.9281 53.1459 32.3801 53.3719 32.3801 53.7109C32.8321 55.8569 32.7191 55.4049 32.9451 56.5349C33.8491 56.5349 34.6391 56.6479 35.4301 56.6479C35.2041 55.9699 35.2041 55.2929 35.2041 54.0499C35.2041 53.5979 35.4301 53.3719 35.8821 53.3719C36.2211 53.3719 36.4471 53.5979 36.4471 54.0499C36.5601 55.2919 36.5601 55.9699 36.7861 56.6479C37.3511 56.7609 37.8021 56.7609 38.2541 56.7609C38.1411 56.4219 38.0281 56.0829 37.8021 55.6319C37.5761 55.4059 37.4631 55.0669 37.5761 54.8409C37.6891 54.5019 38.0281 54.2759 38.3671 54.5019C39.1581 54.8409 39.1581 55.7439 39.7221 56.7609C40.4001 56.7609 41.0771 56.6479 41.8681 56.6479C41.6421 56.1959 41.4161 55.8569 41.0771 55.4059C40.8511 55.1799 40.7381 54.7279 40.9641 54.5019C41.1901 54.1629 41.6421 54.0499 41.8681 54.2759C42.6591 55.1799 42.9971 55.8569 43.2231 56.6479C44.3521 56.5349 45.3691 56.5349 46.3851 56.4219C46.2721 55.9699 46.1591 55.9699 45.3691 54.6149C45.1431 54.3889 45.1431 53.9369 45.3691 53.7109C45.5951 53.4849 46.0471 53.4849 46.2731 53.7109C47.5151 55.6309 47.4021 55.2919 47.7411 56.3089C49.0961 56.0829 50.4521 55.9699 51.8071 55.7439C51.5811 54.9529 51.3551 54.1629 51.1291 53.8239C50.7901 53.7109 50.6771 53.2589 50.7901 53.0329C51.0161 52.6939 51.3551 52.4679 51.6941 52.6939C52.4851 53.1459 52.9361 54.3879 53.1621 55.5179C53.9531 55.2919 54.8561 55.1789 55.6471 54.9529C55.5341 54.1619 55.4211 53.4849 54.6311 51.9039C54.5181 51.6779 54.5181 51.2259 54.8571 50.9999C55.1961 50.8869 55.5351 50.8869 55.7611 51.2259C56.4391 52.5809 56.7771 53.4849 57.0031 54.6139C58.6971 54.2749 60.3911 53.7099 61.9721 53.1459C61.7461 52.4679 61.4071 51.6779 60.7301 50.6609C60.5041 50.4349 60.5041 49.9829 60.7301 49.7569C60.9561 49.5309 61.4081 49.5309 61.6341 49.7569C62.6501 51.1119 62.8761 51.6769 63.2151 52.6929C64.5701 52.1279 65.9261 51.5639 67.0551 50.9989C66.7161 50.0949 66.1511 48.6269 66.1511 48.6269C65.8121 48.4009 65.6991 47.9489 65.9251 47.7239C66.0381 47.3849 66.4901 47.2719 66.7161 47.4979C67.5071 48.0629 67.9581 49.1919 68.2971 50.2089C68.9751 49.7569 69.6521 49.1929 70.2171 48.5149V48.4019C69.7651 45.3529 70.1041 46.9339 69.2011 43.8839C69.0881 43.5449 69.3141 43.2059 69.6531 43.0929C69.9921 42.9799 70.3311 43.2059 70.4441 43.5449C71.3481 46.2559 71.1221 45.3519 71.4601 47.2719C71.9121 46.7069 72.3641 46.1429 72.7021 45.4649C72.7021 43.9969 72.7021 44.6739 72.1371 42.1899C72.0241 41.8509 72.2501 41.5119 72.5891 41.3989C73.0411 41.2859 73.3801 41.5119 73.4931 41.8509C73.7191 42.8669 73.8321 43.4319 73.8321 43.7709C74.1711 43.3189 74.5101 42.7539 74.7361 42.3029C74.6231 41.5119 74.6231 41.7379 74.2841 40.0439C74.0581 39.7049 74.1711 39.2529 74.5101 39.1399C74.8491 38.9139 75.3011 39.0269 75.4141 39.3659C75.5271 39.8179 75.6401 40.1569 75.6401 40.3819C75.9791 39.8169 76.2051 39.2529 76.4311 38.5749C76.4311 38.3489 76.3181 38.1229 75.9791 36.8809C75.9791 36.5419 76.2051 36.2029 76.5441 36.2029C76.8831 36.0899 77.1091 36.3159 77.2221 36.5419C78.5771 32.4759 78.9161 28.7489 77.2221 26.9419C75.7541 31.9109 71.6881 33.1539 69.0901 35.5259C68.5251 35.9779 67.9611 36.4299 67.6221 37.1069C59.6031 49.5309 50.9071 43.7709 46.3891 42.4149C45.3731 42.0759 44.5821 41.9629 44.1301 42.4149C43.4521 42.8669 42.8881 43.2059 42.2101 43.6569C38.8221 45.6899 34.5301 47.0449 30.4641 47.2709C26.1721 47.3839 22.1061 46.0289 19.5091 42.4149C15.6691 36.8809 10.1351 44.7869 8.21511 39.2529V39.1399C5.27911 43.5449 6.29512 49.4179 11.8291 51.7889C12.1681 52.0149 12.6201 52.1279 12.9581 52.3539C10.6991 49.9819 9.4571 47.0459 9.2311 42.9799C9.2311 42.6409 9.57011 42.3019 9.90911 42.3019C10.2481 42.3019 10.5811 42.6429 10.5811 42.9809ZM68.9721 8.64694C68.8591 8.64694 68.8591 8.53393 68.7461 8.53393C68.6331 8.53393 68.6331 8.53393 68.6331 8.42093C68.5201 8.42093 68.4071 8.42093 68.2941 8.30793C56.8871 2.88693 38.7031 1.41893 27.0711 5.93593C13.9701 11.0179 8.21012 13.7289 3.12712 27.0559V27.1689C5.72512 28.4109 8.32212 32.0249 9.90312 35.3009C10.2421 35.5269 10.4681 35.8659 10.4681 36.3169C10.5811 36.4299 10.5811 36.5429 10.5811 36.6559C10.6941 37.2209 10.9201 37.6719 11.0331 38.1239C13.7441 36.7689 18.9391 36.7689 21.3111 39.5919C24.9251 43.9969 27.0711 45.0129 34.0731 43.7709C47.6261 41.2859 36.7841 36.7689 51.1271 40.9469L51.6921 41.0599C59.0331 43.2059 61.6311 40.2689 64.1161 36.9939C65.4711 35.0739 66.8271 33.1539 68.8601 31.7989C72.1351 29.6529 74.0551 27.9589 74.6201 25.1349L74.1681 24.7959C73.9421 24.5699 73.8291 24.3439 73.7161 24.1179C73.7161 23.5529 73.8291 23.1019 74.2811 22.6499C74.3941 22.5369 74.6201 22.4239 74.8461 22.3109C74.7331 21.0689 74.6201 19.5999 74.2811 17.9059C73.7151 15.3109 71.5691 10.1159 68.9721 8.64694ZM69.5361 5.59793C69.5361 5.59793 69.5361 5.59793 69.6491 5.59793C69.8751 5.71093 70.2141 5.93694 70.5531 6.04994C70.7791 6.16294 71.0051 6.27593 71.2311 6.38893C71.3441 6.50193 71.4571 6.72794 71.5701 6.84094C74.5061 9.32594 76.6521 14.1819 77.2171 17.3449C77.6691 19.8299 77.8951 21.8629 77.7821 23.5569C78.0081 23.6699 78.3471 23.8959 78.6861 24.1219C85.0111 28.9779 78.4601 43.0959 75.2981 47.5009C63.8911 63.0869 26.7331 61.7319 10.8091 54.6159C0.8701 50.2109 3.0161 39.2559 6.8561 35.9809C3.4681 29.8819 -1.0499 29.6559 0.305102 25.9289C5.6131 12.0369 12.0511 8.53593 25.8301 3.22793C38.4781 -1.74307 57.0001 -0.275066 69.5361 5.59793ZM51.1271 15.7629C50.3361 10.3419 26.7321 16.7789 31.1361 22.4269C34.2981 26.4929 50.6751 22.4269 51.1271 19.7159C51.3531 18.5869 51.2401 17.4569 51.3531 16.2149C51.2401 16.1009 51.1271 15.8759 51.1271 15.7629ZM54.0641 15.0849C54.2901 15.3109 54.2901 15.6499 54.2901 15.8759C54.2901 17.4569 54.2901 18.8119 54.0641 20.2809C54.0641 20.5069 53.9511 20.6199 53.9511 20.8459C53.9511 20.8459 53.9511 20.8459 54.0641 20.8459C55.5321 20.9589 55.3061 21.2979 56.3231 21.7499C56.6621 21.7499 56.8881 22.0889 56.8881 22.4279C57.0011 22.7669 56.6621 23.1059 56.3231 23.1059C55.3071 22.9929 55.0811 22.2019 54.0641 22.0899C53.8381 22.0899 53.4991 21.9769 53.4991 21.6379C52.5951 22.9929 50.7881 24.1229 48.5301 25.0259C48.9821 26.0419 48.7561 25.5909 49.3211 26.7199C49.6601 26.9459 49.6601 27.3979 49.4341 27.6239C49.2081 27.9629 48.7561 27.9629 48.4181 27.7369C47.5141 26.1559 47.8531 26.7209 47.2891 25.4779C45.9341 25.9299 44.3531 26.3819 42.8841 26.6069V26.7199C42.9971 27.0589 42.8841 27.3979 42.5451 27.5109C41.6411 27.9629 41.7541 27.9629 40.6251 28.0759C40.2861 28.1889 39.9471 27.8499 39.9471 27.5109C39.9471 27.2849 40.0601 27.1719 40.1731 27.0589C35.3171 27.5109 30.6861 26.7199 28.7661 24.2349C21.1981 14.4069 51.6921 4.80693 54.0641 15.0849ZM76.7651 33.3809C71.0051 43.3199 71.4571 41.8519 60.3891 45.6919C49.3211 49.6449 34.8641 52.8069 23.2311 49.9839C22.8921 49.8709 22.6661 49.4189 22.7791 49.0799C22.8921 48.7409 23.3441 48.6279 23.6831 48.7409C24.0221 48.8539 24.3611 48.8539 24.6991 48.9669C35.7671 51.3389 49.6591 48.0629 60.0501 44.4489C70.4411 40.8349 69.7631 42.3029 75.1841 33.6069L75.4101 33.1549C75.5231 32.8159 75.8621 32.5899 76.2011 32.5899C76.5391 32.7039 76.7651 33.0429 76.7651 33.3809ZM58.2421 34.5109C56.3221 35.4149 57.2261 34.9629 55.3061 35.9789C55.0801 36.3179 54.6281 36.3179 54.4021 36.0919C54.0631 35.7529 54.0631 35.4139 54.2891 35.0759C56.8871 33.6079 55.5311 34.2849 58.2421 33.2689C58.5811 33.2689 58.9201 33.4949 58.9201 33.8339C58.9201 34.2849 58.5811 34.5109 58.2421 34.5109ZM55.1931 29.4279C56.4351 29.0889 56.6611 29.2019 57.7911 29.2019C58.2431 29.2019 58.4691 29.5409 58.4691 29.8799C58.4691 30.2189 58.2431 30.5579 57.7911 30.5579C57.0001 30.5579 56.5491 30.4449 55.6451 30.6709C55.3061 30.7839 54.9671 30.5579 54.8541 30.2189C54.6281 29.8799 54.8541 29.5409 55.1931 29.4279ZM25.0381 19.2639C25.4901 20.3929 25.2641 19.8289 25.7161 20.7319C25.9421 21.0709 25.8291 21.4099 25.4901 21.6359C25.2641 21.8619 24.8121 21.7489 24.5861 21.5229C24.1341 20.3939 24.3601 20.9579 23.9081 19.8289C23.6821 19.4899 23.9081 19.0379 24.1341 18.9249C24.4731 18.8119 24.9251 18.9249 25.0381 19.2639ZM18.7131 18.2469C19.1651 19.0379 20.1811 19.2629 20.2941 20.0539C20.4071 20.3929 20.0681 20.7319 19.7291 20.7319C19.5031 20.8449 19.2771 20.7319 19.1641 20.5059C18.3731 19.7149 17.9221 19.8279 17.4701 18.5859C17.3571 18.2469 17.5831 17.9079 17.9221 17.7949C18.2611 17.7959 18.6001 17.9089 18.7131 18.2469ZM14.1951 22.8779C13.6301 24.0069 13.4041 24.1199 12.8401 25.0239C12.6141 25.3629 12.2751 25.4759 11.9361 25.2499C11.5971 25.0239 11.4841 24.6849 11.7101 24.3459C12.2751 23.4419 12.5011 23.3299 12.9521 22.3129C13.1781 21.9739 13.5171 21.8609 13.8561 22.0869C14.1951 22.1999 14.3081 22.6519 14.1951 22.8779ZM19.2781 29.4279C18.1491 30.4439 17.6971 30.6699 16.2291 31.1219C15.8901 31.1219 15.5511 30.8959 15.4381 30.5569C15.4381 30.2179 15.6641 29.8789 16.0031 29.7659C17.0191 29.4269 17.4711 29.2009 18.2621 28.5239C18.4881 28.2979 18.9401 28.2979 19.1661 28.5239C19.5041 28.7509 19.5041 29.2029 19.2781 29.4279ZM25.4891 29.6539C27.7481 29.8799 26.6181 29.7669 28.9901 30.2189C29.3291 30.3319 29.4421 30.7839 29.3291 31.1229C29.1031 31.4619 28.7641 31.5749 28.4251 31.4619C26.5051 31.1229 27.5211 31.2359 25.4891 31.0099C25.1501 31.0099 24.8111 30.7839 24.8111 30.3319C24.8121 29.9929 25.0381 29.7669 25.4891 29.6539ZM31.5881 36.5439C30.5721 37.8989 31.1361 37.2219 29.8941 38.6899C29.5551 38.8029 29.1031 38.5769 28.9901 38.2379C28.8771 37.8989 29.1031 37.5599 29.4421 37.4469C30.0071 36.4299 29.6681 36.9949 30.4581 35.8659C30.6841 35.5269 31.0231 35.4139 31.3621 35.6399C31.7011 35.8659 31.7011 36.2049 31.5881 36.5439ZM38.9291 34.1719C39.9451 35.7529 39.4941 34.9629 40.3971 36.6569C40.5101 36.9959 40.2841 37.3349 39.9451 37.4479C39.6061 37.5609 39.2671 37.3349 39.1541 36.9959C38.3631 35.6409 38.8151 36.3179 37.9121 34.9629C37.6861 34.7369 37.6861 34.2849 38.0251 34.0589C38.2521 33.8329 38.7041 33.9459 38.9291 34.1719ZM34.8641 28.4119C34.4121 29.7669 34.6381 29.2029 34.1861 30.3319C34.1861 30.6709 33.9601 31.0099 33.6211 31.0099C33.1691 31.0099 32.9431 30.6709 32.9431 30.3319C33.3951 28.7509 33.1691 29.5409 33.6211 27.9599C33.7341 27.6209 34.1861 27.5079 34.5251 27.5079C34.8641 27.6209 34.9771 28.0729 34.8641 28.4119ZM48.1911 32.1389C48.0781 33.6069 47.2871 34.5109 46.3841 35.6399C46.1581 35.9789 45.7061 35.9789 45.4801 35.7529C45.1411 35.5269 45.1411 35.0749 45.3671 34.8489C46.0451 34.0579 46.8351 33.1549 46.9481 32.1379C46.9481 31.6859 47.1741 31.4599 47.6261 31.4599C47.9651 31.4609 48.1911 31.6869 48.1911 32.1389ZM62.6471 21.5229C63.8891 21.0709 64.0021 21.1839 65.3581 21.2969C65.6971 21.2969 66.0361 21.5229 66.0361 21.8619C66.0361 22.3139 65.6971 22.5399 65.3581 22.5399C64.3421 22.5399 64.1161 22.4269 63.0991 22.7659C62.7601 22.8789 62.4211 22.6529 62.1951 22.3139C62.0821 22.0869 62.3081 21.6359 62.6471 21.5229ZM69.8751 17.3439H69.3101C68.9711 17.3439 68.6321 17.0049 68.6321 16.6659C68.6321 16.3269 68.9711 15.9879 69.3101 15.9879H69.8751C70.2141 15.9879 70.5531 16.3269 70.5531 16.6659C70.5531 17.0049 70.2141 17.3439 69.8751 17.3439ZM64.3411 15.0849C63.0991 15.7629 63.6631 15.5369 62.6471 15.9889C62.5341 16.3279 62.1951 16.5539 61.8561 16.4409C61.5171 16.4409 61.2911 15.9889 61.4041 15.6499C63.0981 14.1819 62.0821 14.8589 64.1151 13.7299C64.5671 13.7299 64.7931 13.9559 64.9061 14.2949C64.9061 14.6329 64.6801 14.9719 64.3411 15.0849ZM68.9721 25.9269C68.7461 27.8469 68.0681 28.0729 67.6171 29.4279C67.6171 29.7669 67.2781 29.9929 67.0521 30.1059C66.6001 30.1059 66.3741 29.7669 66.2611 29.4279C66.3741 28.2989 67.5031 27.3949 67.6161 25.9269C67.6161 25.5879 67.9551 25.2489 68.2941 25.2489C68.6331 25.2489 68.9721 25.4759 68.9721 25.9269ZM53.4991 7.40493C56.6611 9.09893 55.0801 8.30893 58.1301 9.88993C58.4691 10.1159 58.4691 10.5679 58.2431 10.7939C58.0171 11.1329 57.6781 11.1329 57.3391 10.9069C54.5161 9.43893 55.9841 10.2289 52.7081 8.53494C52.4821 8.30894 52.3691 7.96993 52.5951 7.63093C52.8211 7.29193 53.1601 7.29193 53.4991 7.40493ZM64.9061 8.53393C64.1151 9.54993 64.5671 9.09893 63.8901 10.0019C63.7771 10.3409 63.4381 10.5669 63.0991 10.5669C62.6471 10.4539 62.5341 10.1149 62.5341 9.77594C63.4381 8.19494 62.9861 8.98493 64.0021 7.62993C64.3411 7.29093 64.6801 7.40393 65.0181 7.62993C65.2451 7.85693 65.2451 8.30893 64.9061 8.53393ZM49.4331 5.93693C49.2071 6.50193 48.6421 8.08293 47.9651 8.30893C47.6261 8.42193 47.1741 8.19594 47.1741 7.85694C47.0611 7.63094 47.1741 7.40493 47.2871 7.29193C47.6261 6.83993 47.9651 5.93693 48.1911 5.59793C48.3041 5.25893 48.6431 5.03294 48.9821 5.14594C49.3201 5.25894 49.5461 5.59793 49.4331 5.93693ZM43.1081 6.16294C43.2211 7.96994 43.2211 7.06693 43.3341 8.98693C43.2211 9.32593 42.9951 9.66494 42.5431 9.55194C42.2041 9.55194 41.9781 9.21293 41.9781 8.87393C41.8651 7.17993 41.9781 8.08293 41.8651 6.38893C41.7521 6.04993 41.9781 5.71093 42.3171 5.59793C42.6571 5.59793 43.1081 5.82394 43.1081 6.16294ZM40.2851 7.63093C39.1561 9.21193 39.8331 8.42193 38.2521 10.0029C37.9131 10.0029 37.5741 9.88994 37.4611 9.43794C37.3481 9.09894 37.5741 8.75994 37.9131 8.64694C38.7041 7.63094 38.2521 8.19493 39.2681 6.83993C39.3811 6.50093 39.8331 6.50093 40.1721 6.72693C40.3981 6.83993 40.5111 7.29193 40.2851 7.63093ZM32.1531 6.04994C34.1861 6.72794 33.1691 6.38894 35.0891 6.95394C35.4281 7.06694 35.6541 7.40594 35.5411 7.74494C35.5411 8.08394 35.2021 8.30993 34.8631 8.30993C32.7171 7.63193 33.7341 7.97093 31.8141 7.29393C31.4751 7.18093 31.2491 6.84193 31.3621 6.50293C31.4751 6.16293 31.8141 5.93694 32.1531 6.04994ZM31.9271 9.77693C31.9271 11.8099 31.9271 10.7929 32.0401 12.8259C32.1531 13.1649 31.9271 13.5039 31.5881 13.6169C31.1361 13.6169 30.7971 13.3909 30.7971 13.0519C30.5711 10.9059 30.6841 11.9229 30.5711 9.77693C30.5711 9.43793 30.9101 9.09893 31.2491 9.09893C31.5881 9.09893 31.9271 9.43793 31.9271 9.77693Z" fill="white"/>
</svg>
