<svg width="77" height="90" viewBox="0 0 77 90" fill="none" xmlns="http://www.w3.org/2000/svg">
<path fill-rule="evenodd" clip-rule="evenodd" d="M5.45393 32.824C2.62993 29.436 -1.54806 24.579 1.50094 21.417C2.29194 20.739 3.08193 19.949 3.75993 19.045L3.64694 19.158C3.87294 18.48 3.98593 18.254 4.66293 17.916C9.29393 20.062 11.8909 21.417 14.9409 23.676C12.3429 17.916 7.14793 14.076 9.63293 11.704C14.2639 7.18597 16.5219 8.87996 19.1199 12.72C19.7979 12.155 20.8139 11.478 22.0559 10.8C21.7169 10.348 21.2649 9.89596 20.9269 9.33196C18.5549 6.73396 25.4449 3.00696 26.9129 4.24996C27.8169 4.92796 28.7199 5.71796 29.6239 6.73496C29.8499 3.68596 30.8659 2.32996 35.8359 3.23396C40.8059 4.13796 34.2549 13.173 40.3539 16.787C40.8059 16.109 41.3699 15.658 41.8219 15.206C39.3369 9.21996 35.8359 5.04096 43.2899 3.57296C44.7579 3.23396 46.5649 4.92796 48.1459 7.07396C47.9199 1.31396 48.7109 -0.832038 57.4069 1.31396C58.8749 1.65296 58.8749 3.00796 58.7619 4.36296C61.0209 4.70196 63.7309 6.05696 63.9569 8.76796C64.5219 14.076 63.8439 19.046 62.1499 24.015C62.3759 24.241 62.4889 24.354 62.6019 24.467C63.3929 24.467 64.6349 24.354 66.2159 24.015C67.0069 23.789 67.9099 24.241 68.1359 25.032C68.3619 25.823 67.7969 26.726 67.0069 26.952C66.8939 26.952 66.7809 26.952 66.5549 26.952C64.1829 27.404 63.3929 27.065 61.8109 27.291C59.0999 31.583 59.3259 34.18 56.0509 37.907C55.9379 38.246 55.5989 38.472 55.2599 38.698C54.4689 39.489 53.5659 40.279 52.4359 41.183C44.8689 47.056 23.5229 49.879 17.0849 43.442C15.7299 44.346 14.1489 45.249 13.4709 45.927C17.6499 50.783 16.2949 48.638 20.5859 55.866C22.3929 58.802 33.1219 80.487 33.4609 83.311L33.1219 86.247C50.5149 87.376 56.8399 88.054 70.5049 75.856C70.9569 75.404 72.6509 73.936 73.1029 73.032C70.2789 65.578 69.3759 66.368 68.3589 57.446C67.2299 48.185 65.5349 41.747 64.7449 31.808C64.4059 31.13 64.5189 30.34 65.0839 29.888C65.4229 29.662 65.8749 29.549 66.2129 29.549C66.5519 29.662 66.8909 29.775 67.2289 30.114C67.5679 30.792 67.6809 31.018 67.6809 31.808C67.7939 40.504 70.2789 48.749 71.2949 57.559C72.9889 71.677 80.6689 70.886 72.5369 78.114C58.4189 90.763 51.1909 90.538 33.2339 89.295C25.4409 74.5 34.7019 92.796 29.1679 79.695C27.6999 76.307 24.9889 72.128 23.2949 67.949C20.2459 60.721 18.6639 58.688 14.8239 52.137C13.2429 49.539 10.9839 48.184 10.4189 46.829C9.96694 45.7 10.7579 44.457 11.9999 43.328C8.27294 41.069 2.85193 35.761 4.88493 33.502C5.11593 33.276 5.22893 33.05 5.45393 32.824ZM59.4399 25.821C57.7459 24.805 54.8089 23.562 52.5509 22.659C54.1319 26.047 55.0359 29.548 55.5999 33.388C56.1649 32.597 56.6159 31.694 57.0679 30.903C58.3109 28.306 58.9889 26.725 59.4399 25.821ZM53.0029 36.551C51.7609 26.499 50.7439 24.579 44.8709 17.012C44.3059 17.351 43.4029 18.028 42.8379 18.48C45.6619 25.031 49.3889 31.694 50.5179 38.696C51.4209 38.019 52.2119 37.341 53.0029 36.551ZM47.9199 40.504C47.9199 40.278 47.9199 40.052 48.0329 39.826C47.4679 37.793 45.9999 34.292 44.5319 30.791C43.8539 35.309 42.1599 39.713 39.3369 43.44C42.3859 42.876 45.3229 41.859 47.9199 40.504ZM34.8189 44.005C34.1409 39.487 31.7699 37.116 29.0589 34.179C28.1549 36.777 28.0429 39.374 28.1549 44.005C28.3809 44.005 28.7199 44.005 29.0589 44.005C30.9789 44.118 32.8989 44.118 34.8189 44.005ZM24.9929 43.44L24.7669 41.972C24.5409 33.501 28.3809 29.774 31.8819 23.45C31.4299 22.885 30.0749 22.433 29.1709 22.321C27.4769 24.58 23.1849 28.985 21.9429 35.535C21.9429 35.761 21.9429 36.1 21.8299 36.326C21.4909 38.133 21.4909 40.053 21.7169 42.199C22.7339 42.65 23.7509 43.101 24.9929 43.44ZM16.0709 40.278C14.1509 36.551 12.9089 35.309 9.29493 32.711C8.72993 33.276 8.05294 34.179 7.48794 34.97C8.72994 36.664 12.7959 40.391 14.3769 41.295C14.9409 40.843 15.6189 40.504 16.0709 40.278ZM18.6689 38.697C18.6689 37.681 18.7819 36.777 18.8949 35.873C15.9589 27.628 18.2169 34.066 16.6359 28.758C16.5229 28.645 16.4099 28.645 16.2969 28.532C12.9089 25.934 8.50394 23.563 5.90594 21.078C5.22794 22.094 4.32493 22.998 3.30793 23.902C3.98593 25.483 6.24393 28.871 7.37393 30.566C8.72893 29.211 9.85893 28.872 11.8919 30.453C12.9079 31.244 14.1509 32.486 15.7319 34.406C17.4259 36.325 17.8779 37.116 18.6689 38.697ZM30.4139 31.243C31.6559 32.711 32.8989 33.954 33.9149 35.196C34.1409 34.405 34.4799 33.728 34.7059 33.05C35.3839 30.452 35.7219 28.419 35.9479 26.612C35.8349 26.499 35.9479 26.612 35.7219 25.934L35.6089 25.482C35.3829 24.691 35.1569 24.014 34.9309 23.336C34.9309 23.788 34.8179 24.24 34.5919 24.804C34.4789 24.917 34.3659 25.143 34.2529 25.369C32.5599 27.854 31.3179 29.661 30.4139 31.243ZM34.4799 21.869C32.2209 14.98 31.0919 13.737 25.6709 7.18696C25.2189 7.52596 24.5419 7.97796 23.9769 8.31596C26.6879 11.478 28.2689 15.431 29.6239 19.271C31.3179 19.384 33.4639 20.4 34.4799 21.869ZM26.7999 20.513C25.8959 17.802 25.2189 15.769 24.0889 13.737C23.9759 13.624 23.8629 13.511 23.7499 13.285C23.0719 13.85 21.7169 14.64 20.9259 15.431C20.9259 15.544 21.0389 15.657 21.0389 15.77C22.6199 18.142 23.4109 19.497 23.9749 20.965C24.2009 21.643 24.3139 22.32 24.5399 23.111C25.2189 22.207 26.0099 21.417 26.7999 20.513ZM22.2829 26.499L21.9439 25.257C21.4919 22.998 20.7019 21.304 19.7979 19.836C19.0069 18.255 18.1039 17.125 17.7649 15.996C16.9739 14.754 15.7319 12.947 14.8289 12.156C14.0379 12.495 13.0219 13.06 12.2309 13.511C17.6519 20.626 18.1039 23.45 20.2499 30.339L20.3629 30.565C20.8139 29.21 21.4919 27.854 22.2829 26.499ZM29.3979 22.094C29.6239 21.868 29.8499 21.529 29.8499 21.19C29.8499 21.417 29.6239 21.756 29.3979 22.094ZM37.1909 41.069C37.8689 40.053 38.5459 39.036 38.9979 38.02C40.3529 35.535 41.2569 33.051 41.7089 30.227C41.9349 28.533 42.0479 26.726 42.0479 24.58C41.7089 23.789 41.3699 22.886 41.1439 22.095C40.5789 22.095 40.0149 22.095 39.4499 22.208C39.4499 23.676 39.2239 25.37 38.9979 27.064C38.5459 30.904 37.6429 35.083 36.0619 38.132C36.0619 38.019 36.1749 37.906 36.1749 37.793C36.1749 38.019 36.0619 38.019 36.0619 38.132C36.5129 39.036 36.8519 39.939 37.1909 41.069ZM44.3059 13.737C46.2259 13.511 47.6939 15.544 49.6139 18.029C48.7099 12.495 48.4849 12.269 43.5149 6.62196C43.0629 6.73496 42.4989 7.07397 41.9339 7.29997C42.3859 8.99297 43.5159 11.704 44.3059 13.737ZM52.8899 19.61C53.2289 19.723 53.6809 19.949 54.0189 20.062C54.3579 17.126 54.9229 11.027 55.3739 7.52596C55.3739 7.18696 55.4869 6.84796 55.4869 6.62196C55.4869 6.50896 55.4869 6.39596 55.4869 6.16996C55.4869 5.37896 55.7129 4.70196 55.7129 4.02396C54.4709 3.91096 52.6639 3.79796 51.4209 3.68496C51.1949 5.49196 51.1949 8.87996 51.3079 10.913C51.3079 11.365 51.3079 11.704 51.3079 12.042C51.3079 12.155 51.3079 12.381 51.3079 12.494C51.8729 13.849 52.3239 14.979 52.4369 15.769C52.6639 16.899 52.7769 18.367 52.8899 19.61ZM56.9559 21.191C57.8599 21.53 58.7629 21.982 59.5539 22.433C60.7959 18.254 61.6999 12.268 60.9089 8.42796C59.6669 8.20196 59.2149 7.86296 58.4239 7.52396C57.8589 16.109 58.3109 12.269 56.9559 21.191ZM38.5459 19.497C36.5129 18.48 35.4969 16.222 35.0449 13.737C34.4799 11.139 34.5929 8.20296 34.7059 6.16996C34.0279 6.05696 33.3509 6.05696 32.6729 6.16996C32.5599 7.52496 32.6729 9.44497 32.6729 10.688C32.6729 10.801 32.6729 10.801 32.6729 10.914C32.8989 11.479 33.2379 12.043 33.5769 12.608C34.9319 15.093 36.1749 17.803 37.1909 20.288C37.4169 19.949 37.8689 19.723 38.5459 19.497Z" fill="white"/>
</svg>
